<mxfile host="app.diagrams.net" agent="Mozilla/5.0 (Windows NT 10.0; Win64; x64) AppleWebKit/537.36 (KHTML, like Gecko) Chrome/135.0.0.0 Safari/537.36" version="26.2.9">
  <diagram name="第 1 页" id="4bK_YgDdg-cwOnrGXVSP">
    <mxGraphModel dx="827" dy="458" grid="1" gridSize="10" guides="1" tooltips="1" connect="1" arrows="1" fold="1" page="1" pageScale="1" pageWidth="827" pageHeight="1169" math="0" shadow="0">
      <root>
        <mxCell id="0" />
        <mxCell id="1" parent="0" />
        <mxCell id="zjPalcLMCPsp1gV1dhXW-2" value="希刺克厉夫" style="ellipse;whiteSpace=wrap;html=1;" vertex="1" parent="1">
          <mxGeometry x="90" y="430" width="90" height="70" as="geometry" />
        </mxCell>
        <mxCell id="zjPalcLMCPsp1gV1dhXW-4" value="凯瑟琳·林悙" style="ellipse;whiteSpace=wrap;html=1;" vertex="1" parent="1">
          <mxGeometry x="340" y="430" width="90" height="70" as="geometry" />
        </mxCell>
        <mxCell id="zjPalcLMCPsp1gV1dhXW-5" value="哈里顿·恩萧" style="ellipse;whiteSpace=wrap;html=1;" vertex="1" parent="1">
          <mxGeometry x="430" y="570" width="90" height="70" as="geometry" />
        </mxCell>
        <mxCell id="zjPalcLMCPsp1gV1dhXW-6" value="" style="endArrow=classic;html=1;rounded=0;exitX=0.5;exitY=1;exitDx=0;exitDy=0;entryX=0.111;entryY=0.143;entryDx=0;entryDy=0;entryPerimeter=0;" edge="1" parent="1" source="zjPalcLMCPsp1gV1dhXW-4" target="zjPalcLMCPsp1gV1dhXW-5">
          <mxGeometry width="50" height="50" relative="1" as="geometry">
            <mxPoint x="310" y="562" as="sourcePoint" />
            <mxPoint x="360" y="512" as="targetPoint" />
          </mxGeometry>
        </mxCell>
        <mxCell id="zjPalcLMCPsp1gV1dhXW-7" value="侄子" style="text;html=1;align=center;verticalAlign=middle;resizable=0;points=[];autosize=1;strokeColor=none;fillColor=none;" vertex="1" parent="1">
          <mxGeometry x="410" y="500" width="50" height="30" as="geometry" />
        </mxCell>
        <mxCell id="zjPalcLMCPsp1gV1dhXW-11" value="希刺克厉夫夫人" style="ellipse;whiteSpace=wrap;html=1;" vertex="1" parent="1">
          <mxGeometry x="90" y="570" width="90" height="70" as="geometry" />
        </mxCell>
        <mxCell id="zjPalcLMCPsp1gV1dhXW-13" value="" style="endArrow=classic;html=1;rounded=0;entryX=0.54;entryY=-0.013;entryDx=0;entryDy=0;entryPerimeter=0;" edge="1" parent="1" target="zjPalcLMCPsp1gV1dhXW-11">
          <mxGeometry width="50" height="50" relative="1" as="geometry">
            <mxPoint x="140" y="500" as="sourcePoint" />
            <mxPoint x="400" y="540" as="targetPoint" />
          </mxGeometry>
        </mxCell>
        <mxCell id="zjPalcLMCPsp1gV1dhXW-15" value="儿媳妇" style="text;html=1;align=center;verticalAlign=middle;resizable=0;points=[];autosize=1;strokeColor=none;fillColor=none;" vertex="1" parent="1">
          <mxGeometry x="140" y="513" width="60" height="30" as="geometry" />
        </mxCell>
        <mxCell id="zjPalcLMCPsp1gV1dhXW-16" value="" style="endArrow=classic;html=1;rounded=0;exitX=0.167;exitY=0.924;exitDx=0;exitDy=0;exitPerimeter=0;entryX=0.973;entryY=0.253;entryDx=0;entryDy=0;entryPerimeter=0;" edge="1" parent="1" source="zjPalcLMCPsp1gV1dhXW-4" target="zjPalcLMCPsp1gV1dhXW-11">
          <mxGeometry width="50" height="50" relative="1" as="geometry">
            <mxPoint x="320" y="550" as="sourcePoint" />
            <mxPoint x="330" y="580" as="targetPoint" />
          </mxGeometry>
        </mxCell>
        <mxCell id="zjPalcLMCPsp1gV1dhXW-18" value="女儿" style="text;html=1;align=center;verticalAlign=middle;resizable=0;points=[];autosize=1;strokeColor=none;fillColor=none;" vertex="1" parent="1">
          <mxGeometry x="260" y="500" width="50" height="30" as="geometry" />
        </mxCell>
        <mxCell id="zjPalcLMCPsp1gV1dhXW-37" value="" style="edgeStyle=orthogonalEdgeStyle;rounded=0;orthogonalLoop=1;jettySize=auto;html=1;" edge="1" parent="1" source="zjPalcLMCPsp1gV1dhXW-19" target="zjPalcLMCPsp1gV1dhXW-36">
          <mxGeometry relative="1" as="geometry" />
        </mxCell>
        <mxCell id="zjPalcLMCPsp1gV1dhXW-19" value="辛德雷·恩萧" style="ellipse;whiteSpace=wrap;html=1;" vertex="1" parent="1">
          <mxGeometry x="470" y="430" width="110" height="75" as="geometry" />
        </mxCell>
        <mxCell id="zjPalcLMCPsp1gV1dhXW-21" value="" style="endArrow=classic;html=1;rounded=0;exitX=0.435;exitY=0.99;exitDx=0;exitDy=0;exitPerimeter=0;" edge="1" parent="1" source="zjPalcLMCPsp1gV1dhXW-19" target="zjPalcLMCPsp1gV1dhXW-5">
          <mxGeometry width="50" height="50" relative="1" as="geometry">
            <mxPoint x="520" y="570" as="sourcePoint" />
            <mxPoint x="570" y="520" as="targetPoint" />
          </mxGeometry>
        </mxCell>
        <mxCell id="zjPalcLMCPsp1gV1dhXW-22" value="儿子" style="text;html=1;align=center;verticalAlign=middle;resizable=0;points=[];autosize=1;strokeColor=none;fillColor=none;" vertex="1" parent="1">
          <mxGeometry x="500" y="518" width="50" height="30" as="geometry" />
        </mxCell>
        <mxCell id="zjPalcLMCPsp1gV1dhXW-23" value="林悙" style="ellipse;whiteSpace=wrap;html=1;" vertex="1" parent="1">
          <mxGeometry x="75" y="270" width="120" height="80" as="geometry" />
        </mxCell>
        <mxCell id="zjPalcLMCPsp1gV1dhXW-24" value="恩萧" style="ellipse;whiteSpace=wrap;html=1;" vertex="1" parent="1">
          <mxGeometry x="400" y="260" width="120" height="80" as="geometry" />
        </mxCell>
        <mxCell id="zjPalcLMCPsp1gV1dhXW-25" style="edgeStyle=orthogonalEdgeStyle;rounded=0;orthogonalLoop=1;jettySize=auto;html=1;entryX=0.97;entryY=0.547;entryDx=0;entryDy=0;entryPerimeter=0;" edge="1" parent="1" source="zjPalcLMCPsp1gV1dhXW-19" target="zjPalcLMCPsp1gV1dhXW-4">
          <mxGeometry relative="1" as="geometry" />
        </mxCell>
        <mxCell id="zjPalcLMCPsp1gV1dhXW-26" value="妹妹" style="text;html=1;align=center;verticalAlign=middle;resizable=0;points=[];autosize=1;strokeColor=none;fillColor=none;" vertex="1" parent="1">
          <mxGeometry x="430" y="438" width="50" height="30" as="geometry" />
        </mxCell>
        <mxCell id="zjPalcLMCPsp1gV1dhXW-27" value="" style="endArrow=classic;html=1;rounded=0;entryX=0.556;entryY=0;entryDx=0;entryDy=0;entryPerimeter=0;exitX=0.462;exitY=1.023;exitDx=0;exitDy=0;exitPerimeter=0;" edge="1" parent="1" source="zjPalcLMCPsp1gV1dhXW-24">
          <mxGeometry width="50" height="50" relative="1" as="geometry">
            <mxPoint x="431.23999999999995" y="376.56000000000006" as="sourcePoint" />
            <mxPoint x="379.99999999999994" y="430" as="targetPoint" />
          </mxGeometry>
        </mxCell>
        <mxCell id="zjPalcLMCPsp1gV1dhXW-28" value="女儿" style="text;html=1;align=center;verticalAlign=middle;resizable=0;points=[];autosize=1;strokeColor=none;fillColor=none;" vertex="1" parent="1">
          <mxGeometry x="370" y="380" width="50" height="30" as="geometry" />
        </mxCell>
        <mxCell id="zjPalcLMCPsp1gV1dhXW-29" value="" style="endArrow=classic;html=1;rounded=0;exitX=0.686;exitY=1;exitDx=0;exitDy=0;exitPerimeter=0;" edge="1" parent="1" source="zjPalcLMCPsp1gV1dhXW-24" target="zjPalcLMCPsp1gV1dhXW-19">
          <mxGeometry width="50" height="50" relative="1" as="geometry">
            <mxPoint x="451" y="387" as="sourcePoint" />
            <mxPoint x="400" y="440" as="targetPoint" />
          </mxGeometry>
        </mxCell>
        <mxCell id="zjPalcLMCPsp1gV1dhXW-30" value="儿子" style="text;html=1;align=center;verticalAlign=middle;resizable=0;points=[];autosize=1;strokeColor=none;fillColor=none;" vertex="1" parent="1">
          <mxGeometry x="490" y="380" width="50" height="30" as="geometry" />
        </mxCell>
        <mxCell id="zjPalcLMCPsp1gV1dhXW-31" value="" style="endArrow=classic;html=1;rounded=0;entryX=0.984;entryY=0.276;entryDx=0;entryDy=0;entryPerimeter=0;exitX=0.102;exitY=0.847;exitDx=0;exitDy=0;exitPerimeter=0;" edge="1" parent="1" source="zjPalcLMCPsp1gV1dhXW-24" target="zjPalcLMCPsp1gV1dhXW-2">
          <mxGeometry width="50" height="50" relative="1" as="geometry">
            <mxPoint x="441.23999999999995" y="386.56000000000006" as="sourcePoint" />
            <mxPoint x="389.99999999999994" y="440" as="targetPoint" />
          </mxGeometry>
        </mxCell>
        <mxCell id="zjPalcLMCPsp1gV1dhXW-32" value="收养" style="text;html=1;align=center;verticalAlign=middle;resizable=0;points=[];autosize=1;strokeColor=none;fillColor=none;" vertex="1" parent="1">
          <mxGeometry x="240" y="380" width="50" height="30" as="geometry" />
        </mxCell>
        <mxCell id="zjPalcLMCPsp1gV1dhXW-33" value="" style="endArrow=classic;html=1;rounded=0;exitX=0.975;exitY=0.717;exitDx=0;exitDy=0;exitPerimeter=0;" edge="1" parent="1" source="zjPalcLMCPsp1gV1dhXW-24" target="zjPalcLMCPsp1gV1dhXW-34">
          <mxGeometry width="50" height="50" relative="1" as="geometry">
            <mxPoint x="567" y="309" as="sourcePoint" />
            <mxPoint x="620" y="410" as="targetPoint" />
          </mxGeometry>
        </mxCell>
        <mxCell id="zjPalcLMCPsp1gV1dhXW-34" value="约瑟夫&lt;div&gt;&lt;font face=&quot;Times New Roman&quot; style=&quot;font-size: 6px;&quot;&gt;法利赛人&lt;/font&gt;&lt;/div&gt;" style="ellipse;whiteSpace=wrap;html=1;" vertex="1" parent="1">
          <mxGeometry x="640" y="320" width="90" height="70" as="geometry" />
        </mxCell>
        <mxCell id="zjPalcLMCPsp1gV1dhXW-35" value="佣人" style="text;html=1;align=center;verticalAlign=middle;resizable=0;points=[];autosize=1;strokeColor=none;fillColor=none;" vertex="1" parent="1">
          <mxGeometry x="570" y="310" width="50" height="30" as="geometry" />
        </mxCell>
        <mxCell id="zjPalcLMCPsp1gV1dhXW-36" value="弗兰西斯" style="ellipse;whiteSpace=wrap;html=1;" vertex="1" parent="1">
          <mxGeometry x="620" y="430" width="100" height="75" as="geometry" />
        </mxCell>
        <mxCell id="zjPalcLMCPsp1gV1dhXW-38" value="妻子" style="text;html=1;align=center;verticalAlign=middle;resizable=0;points=[];autosize=1;strokeColor=none;fillColor=none;" vertex="1" parent="1">
          <mxGeometry x="570" y="438" width="50" height="30" as="geometry" />
        </mxCell>
        <mxCell id="zjPalcLMCPsp1gV1dhXW-39" value="&lt;div&gt;我&lt;/div&gt;洛克乌德" style="ellipse;whiteSpace=wrap;html=1;" vertex="1" parent="1">
          <mxGeometry x="230" y="200" width="100" height="70" as="geometry" />
        </mxCell>
      </root>
    </mxGraphModel>
  </diagram>
</mxfile>
